<svg width="32" height="32" viewBox="0 0 32 32" fill="none" xmlns="http://www.w3.org/2000/svg">
<g clip-path="url(#clip0_1547_3271)">
<path d="M31.0467 17.9409H17.0885L26.3844 27.2368C26.7397 27.5921 27.3244 27.6209 27.6897 27.2768C29.9661 25.1321 31.532 22.2409 31.9914 18.9909C32.0702 18.4345 31.6085 17.9409 31.0467 17.9409ZM30.1155 14.1292C29.6308 7.10213 24.0155 1.48683 16.9885 1.00213C16.452 0.965068 16.0002 1.41742 16.0002 1.95507V15.1174H29.1632C29.7008 15.1174 30.1526 14.6657 30.1155 14.1292ZM13.1767 17.9409V3.98271C13.1767 3.42095 12.6832 2.95919 12.1273 3.03801C5.11731 4.0286 -0.240926 10.1527 0.00848593 17.4921C0.264957 25.0298 6.75496 31.2109 14.2961 31.1162C17.2608 31.0792 20.0002 30.1239 22.2526 28.5262C22.7173 28.1968 22.7479 27.5127 22.345 27.1098L13.1767 17.9409Z" fill="#19C1CE"/>
</g>
<defs>
<clipPath id="clip0_1547_3271">
<rect width="32" height="32" fill="white"/>
</clipPath>
</defs>
</svg>
