<svg width="32" height="32" viewBox="0 0 32 32" fill="none" xmlns="http://www.w3.org/2000/svg">
<path d="M32 14.7203C32 13.4023 31.2806 12.2638 30.2222 11.6458V3.11876C30.2222 2.63068 29.8344 1.33325 28.4444 1.33325C28.0489 1.33325 27.6561 1.46601 27.3344 1.72482L22.6106 5.51951C20.2378 7.42382 17.2589 8.47304 14.2222 8.47304H3.55556C1.59167 8.47304 0 10.0711 0 12.0429V17.3978C0 19.3696 1.59167 20.9677 3.55556 20.9677H5.42778C5.35056 21.5522 5.30667 22.1468 5.30667 22.7526C5.30667 24.971 5.82111 27.0672 6.72667 28.9408C7.015 29.5371 7.64444 29.8924 8.30444 29.8924H12.4311C13.8783 29.8924 14.7472 28.2279 13.87 27.0722C12.9589 25.8718 12.4172 24.3747 12.4172 22.7526C12.4172 22.1329 12.5072 21.5372 12.6622 20.9677H14.2222C17.2589 20.9677 20.2378 22.0169 22.61 23.9212L27.3339 27.7159C27.649 27.969 28.0404 28.1071 28.4439 28.1074C29.8283 28.1074 30.2217 26.8368 30.2217 26.3225V17.7955C31.2806 17.1769 32 16.0384 32 14.7203ZM26.6667 22.6087L24.8306 21.1339C21.8306 18.7242 18.0622 17.3978 14.2222 17.3978V12.0429C18.0622 12.0429 21.8306 10.7165 24.8306 8.30681L26.6667 6.832V22.6087Z" fill="#19C1CE"/>
</svg>
