<svg width="32" height="32" viewBox="0 0 32 32" fill="none" xmlns="http://www.w3.org/2000/svg">
<path d="M32 25V27C32 27.2652 31.8946 27.5196 31.7071 27.7071C31.5196 27.8946 31.2652 28 31 28H2C1.46957 28 0.960859 27.7893 0.585786 27.4142C0.210714 27.0391 0 26.5304 0 26V5C0 4.73478 0.105357 4.48043 0.292893 4.29289C0.48043 4.10536 0.734784 4 1 4H3C3.26522 4 3.51957 4.10536 3.70711 4.29289C3.89464 4.48043 4 4.73478 4 5V24H31C31.2652 24 31.5196 24.1054 31.7071 24.2929C31.8946 24.4804 32 24.7348 32 25Z" fill="#19C1CE"/>
<path d="M29.9999 7V14.3781C29.9999 15.7144 28.3843 16.3837 27.4374 15.4406L25.4124 13.4156L19.4124 19.4156C19.0374 19.7906 18.5287 20.0013 17.9984 20.0013C17.468 20.0013 16.9594 19.7906 16.5843 19.4156L11.9999 14.8281L9.12119 17.7075C9.02833 17.8004 8.91808 17.8741 8.79674 17.9243C8.6754 17.9746 8.54534 18.0005 8.414 18.0005C8.28266 18.0005 8.15261 17.9746 8.03127 17.9243C7.90993 17.8741 7.79968 17.8004 7.70682 17.7075L6.29307 16.2938C6.20018 16.2009 6.1265 16.0906 6.07623 15.9693C6.02596 15.848 6.00009 15.7179 6.00009 15.5866C6.00009 15.4552 6.02596 15.3252 6.07623 15.2038C6.1265 15.0825 6.20018 14.9722 6.29307 14.8794L10.5862 10.5863C10.9613 10.2113 11.4699 10.0006 12.0003 10.0006C12.5306 10.0006 13.0393 10.2113 13.4143 10.5863L17.9999 15.1719L22.5856 10.5856L20.5624 8.5625C19.6174 7.6175 20.2868 6 21.6249 6H28.9999C29.2652 6 29.5195 6.10536 29.707 6.29289C29.8946 6.48043 29.9999 6.73478 29.9999 7Z" fill="#19C1CE"/>
</svg>
