<svg width="702" height="396" viewBox="0 0 702 396" fill="none" xmlns="http://www.w3.org/2000/svg">
<path opacity="0.1" d="M6.37021 392.004L6.21465 391.579L-202.149 -192.867L-200.345 -193.968L7.87633 390.035L454.393 662.369L453.552 664.728L6.37021 392.004Z" fill="url(#paint0_linear_1538_2945)"/>
<path opacity="0.2" d="M18.6385 375.958L18.483 375.533L-189.887 -208.905L-188.077 -210.015L20.1447 373.988L466.661 646.323L465.813 648.691L18.6385 375.958Z" fill="url(#paint1_linear_1538_2945)"/>
<path opacity="0.3" d="M30.9069 359.912L30.7514 359.487L-177.619 -224.951L-175.809 -226.06L32.406 357.952L478.93 630.277L478.081 632.645L30.9069 359.912Z" fill="url(#paint2_linear_1538_2945)"/>
<path opacity="0.4" d="M43.1681 343.876L43.0196 343.442L-165.351 -240.996L-163.54 -242.105L44.6742 341.906L491.198 614.232L490.35 616.599L43.1681 343.876Z" fill="url(#paint3_linear_1538_2945)"/>
<path opacity="0.5" d="M55.4365 327.83L55.288 327.395L-153.082 -257.043L-151.272 -258.152L56.9426 325.86L503.466 598.186L502.618 600.553L55.4365 327.83Z" fill="url(#paint4_linear_1538_2945)"/>
<path opacity="0.6" d="M67.7048 311.784L67.5563 311.35L-140.814 -273.087L-139.004 -274.197L69.211 309.815L515.735 582.14L514.886 584.508L67.7048 311.784Z" fill="url(#paint5_linear_1538_2945)"/>
<path opacity="0.7" d="M79.973 295.739L79.8245 295.304L-128.546 -289.133L-126.735 -290.243L81.4791 293.769L528.003 566.094L527.154 568.462L79.973 295.739Z" fill="url(#paint6_linear_1538_2945)"/>
<path opacity="0.8" d="M92.2414 279.693L92.0858 279.268L-116.284 -305.17L-114.474 -306.279L93.7475 277.724L540.264 550.058L539.416 552.426L92.2414 279.693Z" fill="url(#paint7_linear_1538_2945)"/>
<path opacity="0.9" d="M104.51 263.647L104.354 263.221L-104.016 -321.216L-102.206 -322.326L106.016 261.677L552.532 534.012L551.684 536.379L104.51 263.647Z" fill="url(#paint8_linear_1538_2945)"/>
<path d="M116.778 247.602L116.622 247.176L-91.7478 -337.261L-89.9376 -338.371L118.277 245.641L564.801 517.967L563.952 520.334L116.778 247.602Z" fill="url(#paint9_linear_1538_2945)"/>
<defs>
<linearGradient id="paint0_linear_1538_2945" x1="-261.152" y1="-115.697" x2="566.45" y2="517.072" gradientUnits="userSpaceOnUse">
<stop stop-color="#78EDF2"/>
<stop offset="0.5" stop-color="#19C1CE" stop-opacity="0.4"/>
<stop offset="1" stop-color="#78EDF2" stop-opacity="0"/>
</linearGradient>
<linearGradient id="paint1_linear_1538_2945" x1="-248.883" y1="-131.743" x2="578.719" y2="501.025" gradientUnits="userSpaceOnUse">
<stop stop-color="#78EDF2"/>
<stop offset="0.5" stop-color="#19C1CE" stop-opacity="0.4"/>
<stop offset="1" stop-color="#78EDF2" stop-opacity="0"/>
</linearGradient>
<linearGradient id="paint2_linear_1538_2945" x1="-236.615" y1="-147.789" x2="590.988" y2="484.979" gradientUnits="userSpaceOnUse">
<stop stop-color="#78EDF2"/>
<stop offset="0.5" stop-color="#19C1CE" stop-opacity="0.4"/>
<stop offset="1" stop-color="#78EDF2" stop-opacity="0"/>
</linearGradient>
<linearGradient id="paint3_linear_1538_2945" x1="-224.35" y1="-163.83" x2="603.252" y2="468.939" gradientUnits="userSpaceOnUse">
<stop stop-color="#78EDF2"/>
<stop offset="0.5" stop-color="#19C1CE" stop-opacity="0.4"/>
<stop offset="1" stop-color="#78EDF2" stop-opacity="0"/>
</linearGradient>
<linearGradient id="paint4_linear_1538_2945" x1="-212.082" y1="-179.876" x2="615.521" y2="452.892" gradientUnits="userSpaceOnUse">
<stop stop-color="#78EDF2"/>
<stop offset="0.5" stop-color="#19C1CE" stop-opacity="0.4"/>
<stop offset="1" stop-color="#78EDF2" stop-opacity="0"/>
</linearGradient>
<linearGradient id="paint5_linear_1538_2945" x1="-199.814" y1="-195.921" x2="627.789" y2="436.847" gradientUnits="userSpaceOnUse">
<stop stop-color="#78EDF2"/>
<stop offset="0.5" stop-color="#19C1CE" stop-opacity="0.4"/>
<stop offset="1" stop-color="#78EDF2" stop-opacity="0"/>
</linearGradient>
<linearGradient id="paint6_linear_1538_2945" x1="-187.545" y1="-211.967" x2="640.057" y2="420.801" gradientUnits="userSpaceOnUse">
<stop stop-color="#78EDF2"/>
<stop offset="0.5" stop-color="#19C1CE" stop-opacity="0.4"/>
<stop offset="1" stop-color="#78EDF2" stop-opacity="0"/>
</linearGradient>
<linearGradient id="paint7_linear_1538_2945" x1="-175.281" y1="-228.008" x2="652.322" y2="404.76" gradientUnits="userSpaceOnUse">
<stop stop-color="#78EDF2"/>
<stop offset="0.5" stop-color="#19C1CE" stop-opacity="0.4"/>
<stop offset="1" stop-color="#78EDF2" stop-opacity="0"/>
</linearGradient>
<linearGradient id="paint8_linear_1538_2945" x1="-163.012" y1="-244.055" x2="664.59" y2="388.713" gradientUnits="userSpaceOnUse">
<stop stop-color="#78EDF2"/>
<stop offset="0.5" stop-color="#19C1CE" stop-opacity="0.4"/>
<stop offset="1" stop-color="#78EDF2" stop-opacity="0"/>
</linearGradient>
<linearGradient id="paint9_linear_1538_2945" x1="-150.744" y1="-260.1" x2="676.859" y2="372.668" gradientUnits="userSpaceOnUse">
<stop stop-color="#78EDF2"/>
<stop offset="0.5" stop-color="#19C1CE" stop-opacity="0.4"/>
<stop offset="1" stop-color="#78EDF2" stop-opacity="0"/>
</linearGradient>
</defs>
</svg>
